<svg id="Слой_1" data-name="Слой 1" xmlns="http://www.w3.org/2000/svg" viewBox="0 0 2320 1080"><defs><style>.cls-1{fill:#ffa953;}</style></defs><path class="cls-1" d="M1492.42,864.54c-24.34-45.42-59.69-83.87-95.76-120.67-68.66-70-141.59-136.28-203.25-212.55s-112.33-164.43-127.94-261.25c-4.92-30.52-18.64-171.37,75.1-270.24H640.08a214,214,0,0,1,10.63,27.58c3.51,11.38,25.36,83.92-6.85,161.48C613.45,262.1,544.65,314.58,469.56,340S313.3,366.61,234.29,360.27c-55-4.41-138.52-19.76-234.62-62.72v784.81h93c46.88-35.62,96.76-67.16,151.13-89.38,75.1-30.68,159.88-42.59,238.09-21,28.18,7.78,55.45,19.94,78.31,38.19,24,19.21,42.44,44.56,56.26,72.2h795.81c32.55-13,65-28.7,85.15-56.94C1530.25,979.37,1519.14,914.4,1492.42,864.54Z"/></svg>