<svg id="Слой_2" data-name="Слой 2" xmlns="http://www.w3.org/2000/svg" viewBox="0 0 2320 1080"><defs><style>.cls-1{fill:#ff7f6f;}</style></defs><path class="cls-1" d="M1857.2,12.57c-4.16-4.18-8.31-8.49-12.4-12.92H580.93A691.41,691.41,0,0,0,472.27,98.24C365.44,218.4,302,376.38,296.15,537.06c-4.62,126.17,24.94,251.07,60.94,372.09q25.89,87,56.34,172.61h1241a641.15,641.15,0,0,1-12.58-147.89c1.12-34.58,5.15-69.61,18.45-101.55,13.11-31.48,34.81-58.81,59.55-82.27,86.32-81.84,208.78-117.36,327.72-118.67,92.87-1,184.55,17,274.52,41.13V296.22C2147.54,242,1986.36,142.49,1857.2,12.57Z"/></svg>